						<svg class="w-12 h-12 text-white hover:scale-110 transition-transform" fill="currentColor"
							viewBox="0 0 24 24" xmlns="http://www.w3.org/2000/svg">
							<path
								d="M12 0.297c-6.63 0-12 5.373-12 12 0 5.302 3.438 9.8 8.205 11.387 0.6 0.113 0.82-0.258 0.82-0.577v-2.234c-3.338 0.726-4.033-1.416-4.033-1.416-0.546-1.387-1.333-1.757-1.333-1.757-1.089-0.745 0.083-0.729 0.083-0.729 1.205 0.084 1.84 1.235 1.84 1.235 1.07 1.834 2.809 1.304 3.495 0.997 0.107-0.776 0.418-1.305 0.762-1.605-2.665-0.303-5.467-1.332-5.467-5.931 0-1.31 0.469-2.381 1.235-3.221-0.124-0.303-0.535-1.523 0.117-3.176 0 0 1.008-0.322 3.301 1.23 0.957-0.266 1.983-0.399 3.003-0.404 1.02 0.005 2.047 0.138 3.006 0.404 2.291-1.552 3.297-1.23 3.297-1.23 0.653 1.653 0.243 2.873 0.119 3.176 0.77 0.84 1.233 1.911 1.233 3.221 0 4.609-2.807 5.625-5.479 5.921 0.43 0.372 0.823 1.104 0.823 2.222v3.293c0 0.319 0.218 0.694 0.825 0.576 4.765-1.588 8.199-6.085 8.199-11.386 0-6.627-5.373-12-12-12z" />
						</svg>
