<?xml version="1.0" encoding="utf-8"?>
<!-- Generator: Adobe Illustrator 24.3.0, SVG Export Plug-In . SVG Version: 6.00 Build 0)  -->
<svg version="1.1" id="Layer_1" xmlns="http://www.w3.org/2000/svg" xmlns:xlink="http://www.w3.org/1999/xlink" x="0px" y="0px"
	 viewBox="0 0 105.1 30" style="enable-background:new 0 0 105.1 30;" xml:space="preserve">
<style type="text/css">
	.st0{fill:#FFFFFF;}
</style>
<g id="Layer_2_1_">
	<g id="LANDING_PAGE_copy">
		<path class="st0" d="M0,29.5V0.4h12.5l2.6,9.1c0.2,0.8,0.5,1.8,0.8,3.1s0.6,2.7,0.9,4.2s0.5,2.9,0.8,4.3s0.4,2.5,0.5,3.5h-1.5
			c0.1-0.9,0.3-2.1,0.5-3.5s0.5-2.8,0.8-4.3s0.6-2.9,0.8-4.1s0.5-2.3,0.8-3.1L22,0.4h12.5v29.2h-8V18.3c0-0.7,0-1.5,0-2.6
			s0.1-2.3,0.1-3.6s0.1-2.6,0.1-4s0-2.6,0-3.7h0.4c-0.2,1.2-0.5,2.5-0.8,3.9s-0.6,2.6-0.9,3.9s-0.6,2.4-0.9,3.5s-0.5,1.9-0.7,2.6
			l-3.3,11.3H14l-3.4-11.3c-0.2-0.7-0.5-1.6-0.8-2.6s-0.6-2.2-0.9-3.5s-0.6-2.6-1-3.9S7.3,5.6,7.1,4.3h0.6c0,1.1,0,2.3,0,3.7
			s0.1,2.6,0.1,4s0.1,2.5,0.1,3.6S8,17.6,8,18.3v11.3H0z"/>
		<path class="st0" d="M38.3,29.5V0.4h12.5c2,0,3.9,0.4,5.7,1.2c1.6,0.7,2.9,1.9,3.8,3.4c0.9,1.6,1.4,3.4,1.4,5.3
			c0.1,1.9-0.4,3.7-1.4,5.3c-0.9,1.4-2.3,2.6-3.9,3.2c-1.8,0.8-3.8,1.1-5.8,1.1h-7.5v-6.2H49c0.8,0,1.6-0.1,2.4-0.4
			c0.6-0.2,1.2-0.6,1.5-1.1c0.4-0.6,0.6-1.3,0.5-2c0-0.7-0.2-1.4-0.5-2c-0.4-0.6-0.9-1-1.5-1.2c-0.8-0.3-1.6-0.4-2.4-0.4h-2.8v22.8
			H38.3z M54.1,29.5l-7.1-13.4h8.4l7.3,13.4H54.1z"/>
		<path class="st0" d="M70.7,30c-1.1,0-2.1-0.4-2.9-1.1c-1.5-1.6-1.5-4.1,0-5.7c1.6-1.5,4.1-1.5,5.8,0c1.6,1.6,1.6,4.1,0,5.7
			c0,0,0,0,0,0C72.8,29.6,71.7,30,70.7,30z"/>
		<path class="st0" d="M92,29.9c-2.6,0.1-5.2-0.6-7.5-1.8c-2.1-1.2-3.9-3-5-5.2c-1.3-2.5-1.9-5.2-1.8-8c-0.1-2.8,0.6-5.7,1.9-8.2
			c1.2-2.2,3-3.9,5.2-5.1C87,0.6,89.5,0,92,0c1.6,0,3.2,0.2,4.8,0.7c1.4,0.5,2.8,1.2,3.9,2.1c1.1,0.9,2,2,2.7,3.2
			c0.7,1.2,1.1,2.6,1.3,4h-8c-0.1-0.5-0.3-0.9-0.6-1.3c-0.3-0.4-0.6-0.7-1-1c-0.4-0.3-0.9-0.5-1.4-0.6c-0.6-0.1-1.1-0.2-1.7-0.2
			c-1.2,0-2.4,0.3-3.4,0.9c-1,0.7-1.7,1.6-2.1,2.8c-0.5,1.4-0.8,2.8-0.7,4.3c0,1.5,0.2,3,0.7,4.4c0.8,2.4,3.1,3.9,5.6,3.7
			c1,0,2-0.1,3-0.5c0.7-0.3,1.4-0.8,1.8-1.5c0.4-0.7,0.6-1.5,0.6-2.3l1.4,0.1h-6.7v-5.6h12.9v4c0.1,2.4-0.5,4.7-1.7,6.8
			c-1.1,1.9-2.7,3.4-4.6,4.3C96.7,29.4,94.4,30,92,29.9z"/>
	</g>
</g>
</svg>
