<svg xmlns="http://www.w3.org/2000/svg" viewBox="0 0 105.11 30"><g id="Layer_2" data-name="Layer 2"><g id="LANDING_PAGE_copy" data-name="LANDING PAGE copy"><path d="M0,29.54V.39H12.48L15.1,9.51c.22.78.48,1.82.76,3.11s.57,2.67.85,4.15.54,2.9.78,4.27.41,2.51.54,3.45H16.57c.13-.94.31-2.09.53-3.45s.49-2.79.77-4.27.56-2.86.84-4.15.53-2.33.75-3.11L22,.39h12.5V29.54h-8V18.27c0-.67,0-1.55.05-2.65s.07-2.31.11-3.63.07-2.64.11-4,.05-2.56.05-3.68h.44c-.23,1.24-.5,2.53-.8,3.87s-.6,2.64-.92,3.91-.61,2.44-.9,3.5-.53,1.94-.74,2.65L20.58,29.54H14L10.56,18.27c-.21-.71-.46-1.59-.75-2.65s-.6-2.23-.93-3.5-.64-2.58-1-3.91S7.35,5.58,7.1,4.34h.57c0,1.12,0,2.35,0,3.68s.06,2.65.1,4,.08,2.53.11,3.63S8,17.6,8,18.27V29.54Z"/><path d="M38.3,29.54V.39H50.85a13,13,0,0,1,5.69,1.18A8.9,8.9,0,0,1,60.33,5a9.94,9.94,0,0,1,1.36,5.31,9.48,9.48,0,0,1-1.39,5.28,8.6,8.6,0,0,1-3.89,3.25,14.44,14.44,0,0,1-5.83,1.09H43.07V13.77H49a7.33,7.33,0,0,0,2.4-.35,3,3,0,0,0,1.53-1.12,3.49,3.49,0,0,0,.53-2,3.61,3.61,0,0,0-.53-2A3.06,3.06,0,0,0,51.38,7.1,6.8,6.8,0,0,0,49,6.73H46.2V29.54Zm15.76,0L46.94,16.16h8.41l7.32,13.38Z"/><path d="M70.65,30a3.93,3.93,0,0,1-2.88-1.13,4.07,4.07,0,0,1,0-5.67,4.2,4.2,0,0,1,5.75,0,4,4,0,0,1,0,5.67A3.89,3.89,0,0,1,70.65,30Z"/><path d="M92,29.93a15,15,0,0,1-7.46-1.81,12.67,12.67,0,0,1-5-5.16A16.51,16.51,0,0,1,77.73,15a16.05,16.05,0,0,1,1.93-8.16,13,13,0,0,1,5.15-5.11A14.74,14.74,0,0,1,92,0a15.18,15.18,0,0,1,4.8.73,12.92,12.92,0,0,1,3.94,2.09A10.89,10.89,0,0,1,103.48,6a10.11,10.11,0,0,1,1.28,4h-8a4.08,4.08,0,0,0-.58-1.33,3.55,3.55,0,0,0-1-1,4.61,4.61,0,0,0-1.37-.61,6.58,6.58,0,0,0-1.71-.2,5.94,5.94,0,0,0-3.39.94,5.91,5.91,0,0,0-2.14,2.75,11.42,11.42,0,0,0-.73,4.32,12.21,12.21,0,0,0,.7,4.39A5.49,5.49,0,0,0,92.09,23a7.33,7.33,0,0,0,3-.53A3.89,3.89,0,0,0,96.89,21a4.26,4.26,0,0,0,.59-2.28l1.37.15H92.2V13.26h12.91v4a13.14,13.14,0,0,1-1.68,6.82,11.18,11.18,0,0,1-4.64,4.32A14.83,14.83,0,0,1,92,29.93Z"/></g></g></svg>